<svg xmlns="http://www.w3.org/2000/svg" width="121" height="49" viewBox="0 0 121 49" fill="none">
  <g clip-path="url(#clip0_7971_2802)">
    <path d="M32.0276 29.9399V3.53367C32.0271 2.59635 31.6617 1.69758 31.0118 1.03497C30.3618 0.37235 29.4804 0.000121949 28.5615 0.00012207H3.46435C2.54569 0.000598797 1.66479 0.373033 1.0152 1.0356C0.365609 1.69816 0.000467392 2.59666 0 3.53367V23.2848C3.19693 24.6229 6.78262 24.619 9.97676 23.274L10.0067 23.2614C11.6013 22.5899 13.0503 21.6039 14.2705 20.36C15.4906 19.1161 16.458 17.6387 17.1171 16.0126L25.2065 19.4526C24.1058 22.163 22.4911 24.625 20.4551 26.6974C18.4192 28.7697 16.002 30.4115 13.3423 31.5285L13.3106 31.5411C9.09519 33.3172 4.43979 33.6997 0 32.635V45.4666C0 46.4037 0.364991 47.3025 1.01468 47.9652C1.66437 48.6278 2.54554 49.0001 3.46435 49.0001H28.5615C29.0166 49.0003 29.4673 48.9091 29.8878 48.7317C30.3083 48.5542 30.6904 48.2939 31.0123 47.9658C31.3342 47.6377 31.5895 47.248 31.7637 46.8192C31.9379 46.3904 32.0276 45.9308 32.0276 45.4666V41.3015H31.9711V29.9399H32.0276Z" fill="#005695"/>
    <path d="M75.3953 36.5212C75.2329 36.5263 75.0711 36.498 74.9196 36.4381C74.7681 36.3781 74.6299 36.2877 74.5134 36.1721C74.4023 36.0635 74.3139 35.9331 74.2535 35.7887C74.1931 35.6443 74.162 35.4889 74.162 35.3319C74.162 35.175 74.1931 35.0196 74.2535 34.8752C74.3139 34.7308 74.4023 34.6004 74.5134 34.4917C74.6296 34.3758 74.7677 34.2851 74.9193 34.2251C75.0709 34.1651 75.2328 34.1371 75.3953 34.1427C75.5539 34.139 75.7116 34.1681 75.8589 34.228C76.0062 34.288 76.1401 34.3777 76.2526 34.4917C76.3641 34.6001 76.4529 34.7305 76.5136 34.8749C76.5743 35.0193 76.6056 35.1748 76.6056 35.3319C76.6056 35.4891 76.5743 35.6446 76.5136 35.789C76.4529 35.9334 76.3641 36.0638 76.2526 36.1721C76.1399 36.2858 76.0059 36.3753 75.8586 36.4353C75.7114 36.4952 75.5539 36.5244 75.3953 36.5212Z" fill="#8DC63F"/>
    <path d="M70.4776 45.1139C70.0232 45.1198 69.5705 45.0549 69.1353 44.9214C68.7653 44.807 68.414 44.6372 68.0928 44.4176C67.8067 44.2191 67.5526 43.9763 67.3396 43.698C67.1427 43.4452 66.984 43.1638 66.8687 42.8632L68.5232 42.1903C68.6785 42.6103 68.9633 42.9677 69.3346 43.2086C69.6779 43.4254 70.0739 43.5394 70.4776 43.5379C70.8601 43.5586 71.24 43.4635 71.5695 43.2644C71.8341 43.0845 71.9664 42.8812 71.9664 42.6563C71.9648 42.5416 71.9371 42.4289 71.8853 42.3271C71.8336 42.2253 71.7593 42.1371 71.6683 42.0697C71.4707 41.9042 71.0956 41.7573 70.5429 41.629L69.384 41.3591C69.1199 41.3036 68.8622 41.2204 68.6149 41.1108C68.3565 40.9999 68.1138 40.854 67.8935 40.6772C67.6746 40.5019 67.4918 40.2842 67.3555 40.0367C67.2126 39.7629 67.1415 39.4562 67.1491 39.1461C67.1431 38.7863 67.232 38.4315 67.4067 38.1188C67.582 37.8156 67.8234 37.5577 68.1122 37.3649C68.4291 37.1526 68.7784 36.9957 69.1459 36.9008C69.5539 36.7906 69.9744 36.7362 70.3965 36.7388C70.7523 36.7372 71.1072 36.7752 71.4549 36.8522C71.7792 36.9235 72.0934 37.0365 72.3897 37.1886C72.674 37.3361 72.9336 37.5286 73.1588 37.759C73.3876 37.991 73.5702 38.2659 73.6968 38.5686L72.0758 39.2253C71.9286 38.8926 71.666 38.6273 71.3384 38.4804C71.022 38.3292 70.6771 38.25 70.3277 38.2483C70.1692 38.2485 70.0111 38.2673 69.8567 38.3041C69.7068 38.3374 69.5621 38.3913 69.4263 38.4642C69.3047 38.5297 69.1972 38.6197 69.1106 38.7287C69.0293 38.8301 68.9856 38.9575 68.9871 39.0885C68.9861 39.1916 69.0124 39.2931 69.0633 39.3821C69.1143 39.4711 69.1879 39.5444 69.2764 39.5941C69.5526 39.7483 69.8499 39.8592 70.1584 39.9234L71.3931 40.2274C72.2328 40.4313 72.8484 40.739 73.24 41.1504C73.428 41.3401 73.5769 41.5663 73.6778 41.8157C73.7787 42.0651 73.8295 42.3325 73.8273 42.6023C73.8283 42.9386 73.7457 43.2698 73.5874 43.5648C73.4149 43.8779 73.1807 44.1511 72.8995 44.3673C72.5815 44.6138 72.2232 44.8008 71.8412 44.9196C71.399 45.0584 70.9385 45.1264 70.4759 45.1211" fill="#8DC63F"/>
    <path d="M76.2773 36.9961H74.4393V44.8566H76.2773V36.9961Z" fill="#8DC63F"/>
    <path d="M84.9207 42.9783C84.565 43.6006 84.0646 44.1239 83.4637 44.5022C82.7643 44.9278 81.9598 45.1395 81.1459 45.1121C80.571 45.1184 80.0004 45.0121 79.4648 44.799C78.9677 44.601 78.5144 44.3037 78.1313 43.9247C77.7531 43.5481 77.4532 43.0978 77.2493 42.6005C76.8363 41.5464 76.8306 40.3717 77.2335 39.3134C77.4234 38.8131 77.7103 38.3571 78.077 37.9725C78.4438 37.5879 78.8828 37.2828 79.3678 37.0753C79.9021 36.8446 80.4775 36.7295 81.0577 36.737C81.6315 36.7271 82.2019 36.831 82.7369 37.0429C83.2083 37.2319 83.6347 37.5214 83.9875 37.8921C84.3373 38.2694 84.6053 38.7175 84.7743 39.2073C84.9607 39.7487 85.0532 40.3192 85.0477 40.8931V41.037C85.0365 41.0842 85.0305 41.1324 85.03 41.181C85.0196 41.2233 85.0143 41.2668 85.0142 41.3105H78.7857C78.8056 41.6338 78.8916 41.9492 79.0384 42.2365C79.1851 42.5238 79.3893 42.7765 79.6377 42.9783C79.8619 43.159 80.1174 43.2951 80.3909 43.3795C80.6538 43.4624 80.9272 43.5054 81.2023 43.5073C81.6651 43.5269 82.1223 43.3979 82.5094 43.1384C82.8489 42.8954 83.1364 42.5845 83.3543 42.2245L84.9207 42.9783ZM83.2149 39.9467C83.1847 39.7609 83.132 39.5796 83.058 39.407C82.9685 39.2024 82.8388 39.0187 82.677 38.8672C82.4827 38.6862 82.258 38.5424 82.0137 38.4426C81.701 38.3152 81.3661 38.254 81.0294 38.2627C80.5361 38.2503 80.0537 38.4124 79.6642 38.7215C79.2794 39.0306 79.0079 39.4628 78.8933 39.9485L83.2149 39.9467Z" fill="#8DC63F"/>
    <path d="M85.7409 36.9961H87.4801V38.0558H87.5789C87.8493 37.6552 88.2129 37.3294 88.6373 37.1077C89.0804 36.8678 89.575 36.7442 90.0766 36.7478C90.6256 36.7322 91.1677 36.8744 91.6412 37.158C92.0569 37.4076 92.389 37.7795 92.5938 38.2249C92.8823 37.7948 93.2613 37.4358 93.7033 37.1742C94.2109 36.8779 94.789 36.7303 95.3737 36.7478C95.815 36.7379 96.2539 36.8174 96.6649 36.9817C97.0116 37.1232 97.3209 37.3457 97.568 37.6312C97.8099 37.9247 97.99 38.2658 98.0972 38.6333C98.2216 39.0575 98.2811 39.4987 98.2736 39.9413V44.8656H96.4532V40.2364C96.4532 39.5527 96.318 39.0729 96.0475 38.7971C95.7759 38.5254 95.3825 38.3887 94.8622 38.3887C94.5832 38.3845 94.3075 38.4506 94.0596 38.5812C93.8239 38.7086 93.6181 38.8866 93.4563 39.1029C93.286 39.3315 93.1569 39.5892 93.0753 39.864C92.9861 40.16 92.9415 40.4682 92.943 40.7779V44.853H91.105V40.2364C91.105 39.5527 90.9645 39.0729 90.6834 38.7971C90.4024 38.5212 89.9967 38.3851 89.4663 38.3887C89.1952 38.3849 88.9276 38.4511 88.6884 38.5812C88.4555 38.7098 88.2522 38.8877 88.0922 39.1029C87.9219 39.3315 87.7928 39.5892 87.7112 39.864C87.622 40.16 87.5774 40.4682 87.5789 40.7779V44.853H85.7409V36.9961Z" fill="#8DC63F"/>
    <path d="M98.9845 36.9961H100.722V38.0072H100.822C101.081 37.6268 101.427 37.3177 101.831 37.1077C102.333 36.8445 102.891 36.7146 103.454 36.7298C103.964 36.728 104.469 36.8346 104.936 37.0429C105.4 37.2476 105.82 37.5449 106.171 37.9173C106.924 38.727 107.344 39.8009 107.344 40.9174C107.344 42.0338 106.924 43.1077 106.171 43.9175C105.82 44.2898 105.4 44.5871 104.936 44.7919C104.469 45.0001 103.964 45.1068 103.454 45.1049C102.891 45.1202 102.333 44.9902 101.831 44.7271C101.428 44.5207 101.081 44.2146 100.822 43.8365H100.722L100.822 44.9286V48.3218H98.9845V36.9961ZM103.107 43.4605C103.416 43.4599 103.722 43.3988 104.008 43.2806C104.294 43.168 104.553 42.9958 104.77 42.775C104.994 42.5472 105.174 42.2779 105.299 41.9816C105.563 41.3013 105.563 40.5442 105.299 39.864C105.173 39.5681 104.994 39.299 104.77 39.0705C104.553 38.8497 104.294 38.6775 104.008 38.565C103.721 38.4476 103.416 38.3865 103.107 38.3851C102.795 38.3847 102.486 38.4458 102.197 38.565C101.915 38.6777 101.658 38.8465 101.442 39.0615C101.218 39.2886 101.041 39.559 100.921 39.8568C100.655 40.5422 100.655 41.3051 100.921 41.9906C101.041 42.2876 101.218 42.5573 101.442 42.784C101.658 42.999 101.915 43.1678 102.197 43.2806C102.486 43.4006 102.795 43.4617 103.107 43.4605Z" fill="#8DC63F"/>
    <path d="M108.055 36.9961H109.792V38.1836H109.891C109.995 37.9725 110.132 37.7799 110.297 37.6132C110.468 37.4367 110.662 37.2859 110.875 37.1652C111.09 37.0419 111.317 36.9447 111.554 36.8756C111.778 36.8085 112.009 36.7734 112.242 36.7712C112.47 36.7675 112.697 36.7892 112.919 36.836C113.097 36.8757 113.269 36.9361 113.433 37.0159L112.904 38.6675C112.773 38.612 112.637 38.5722 112.498 38.5488C112.32 38.5192 112.14 38.5054 111.96 38.5074C111.677 38.5057 111.397 38.5671 111.14 38.6873C110.635 38.9265 110.242 39.3589 110.048 39.891C109.942 40.1723 109.889 40.4713 109.891 40.7725V44.8638H108.055V36.9961Z" fill="#8DC63F"/>
    <path d="M120.868 42.9783C120.49 43.6521 119.938 44.2074 119.273 44.5836C118.607 44.9599 117.853 45.1427 117.093 45.1121C116.518 45.1182 115.947 45.0119 115.412 44.7991C114.915 44.6014 114.462 44.3041 114.08 43.9247C113.701 43.5486 113.401 43.0981 113.198 42.6005C112.785 41.5464 112.779 40.3717 113.182 39.3134C113.372 38.8131 113.659 38.3571 114.026 37.9725C114.393 37.5879 114.832 37.2828 115.317 37.0753C115.851 36.8446 116.426 36.7295 117.006 36.737C117.58 36.7271 118.151 36.831 118.686 37.0429C119.157 37.2319 119.583 37.5214 119.936 37.8921C120.287 38.2689 120.555 38.7171 120.723 39.2073C120.91 39.7487 121.002 40.3192 120.996 40.8931V41.037C120.985 41.0842 120.979 41.1324 120.979 41.181C120.968 41.2233 120.963 41.2668 120.963 41.3105H114.731C114.75 41.6334 114.835 41.9486 114.981 42.2358C115.127 42.5231 115.33 42.776 115.578 42.9783C115.802 43.1587 116.057 43.2948 116.331 43.3795C116.594 43.4624 116.867 43.5054 117.142 43.5073C117.605 43.5269 118.062 43.3979 118.449 43.1384C118.789 42.8954 119.076 42.5845 119.294 42.2245L120.868 42.9783ZM119.162 39.9467C119.133 39.7607 119.08 39.5793 119.005 39.407C118.915 39.2024 118.786 39.0187 118.624 38.8672C118.43 38.6862 118.205 38.5424 117.961 38.4426C117.648 38.3152 117.313 38.254 116.976 38.2627C116.483 38.2506 116.001 38.4127 115.611 38.7215C115.226 39.0306 114.955 39.4628 114.84 39.9485L119.162 39.9467Z" fill="#8DC63F"/>
    <path d="M57.9027 29.283C56.2685 29.2983 54.6483 28.9751 53.1401 28.3331C51.7164 27.7307 50.4238 26.8464 49.3371 25.7315C48.2574 24.6127 47.4023 23.2895 46.8199 21.8363C45.6017 18.7612 45.6017 15.3238 46.8199 12.2486C47.3982 10.7919 48.255 9.46726 49.3404 8.35184C50.4258 7.23642 51.7181 6.35258 53.1419 5.75189C56.1957 4.48635 59.6132 4.48635 62.6671 5.75189C64.0908 6.35258 65.3831 7.23642 66.4685 8.35184C67.5539 9.46726 68.4107 10.7919 68.989 12.2486C70.2072 15.3238 70.2072 18.7612 68.989 21.8363C68.4061 23.2897 67.5504 24.6129 66.4701 25.7315C65.383 26.846 64.0905 27.7302 62.6671 28.3331C61.1583 28.9751 59.5375 29.2983 57.9027 29.283ZM57.9027 25.0928C58.9305 25.1006 59.9497 24.9006 60.9014 24.5045C61.8109 24.1263 62.6391 23.57 63.3391 22.8673C64.0494 22.1457 64.6066 21.2828 64.976 20.3322C65.7663 18.2131 65.7663 15.8718 64.976 13.7527C64.6062 12.8024 64.0491 11.9396 63.3391 11.2177C62.6386 10.5155 61.8106 9.95942 60.9014 9.58049C58.976 8.79708 56.8294 8.79708 54.904 9.58049C53.9948 9.95942 53.1668 10.5155 52.4663 11.2177C51.7552 11.9386 51.1979 12.8017 50.8293 13.7527C50.0367 15.8714 50.0367 18.2136 50.8293 20.3322C51.1969 21.2834 51.7537 22.1465 52.4645 22.8673C53.1645 23.57 53.9927 24.1263 54.9023 24.5045C55.8544 24.901 56.8742 25.101 57.9027 25.0928Z" fill="#005695"/>
    <path d="M75.6144 14.8178H75.8701C76.3601 14.0127 77.0478 13.3522 77.8651 12.9017C78.7426 12.4225 79.7257 12.1804 80.7209 12.1982C81.6113 12.1801 82.496 12.3472 83.3209 12.6894C84.0376 12.9933 84.6708 13.4706 85.166 14.0801C85.6655 14.7194 86.036 15.4531 86.2561 16.2391C86.511 17.1486 86.6352 18.091 86.6248 19.0368V28.7523H82.4161V19.5622C82.4161 18.4071 82.165 17.5507 81.6629 16.993C81.1607 16.4352 80.4281 16.157 79.465 16.1582C78.9334 16.1464 78.408 16.2766 77.941 16.536C77.5 16.7882 77.1169 17.1335 76.8174 17.5489C76.4942 18.0028 76.2551 18.5132 76.1118 19.0548C75.9479 19.657 75.8666 20.2794 75.8701 20.9043V28.7649H71.6667V12.7218H75.6144V14.8178Z" fill="#005695"/>
    <path d="M100.738 26.8272H100.48C100.041 27.5579 99.4195 28.1569 98.6795 28.5634C97.8669 29.0432 96.8615 29.2831 95.6632 29.2831C94.6717 29.2865 93.6915 29.0685 92.7915 28.6444C91.8857 28.2204 91.0696 27.6202 90.389 26.8776C89.6751 26.0935 89.1147 25.1775 88.738 24.1789C87.9243 21.9631 87.9243 19.5218 88.738 17.3061C89.1147 16.3074 89.6751 15.3914 90.389 14.6073C91.0716 13.8647 91.8894 13.2646 92.7968 12.8406C93.6971 12.4172 94.6771 12.1993 95.6685 12.2019C96.8668 12.2019 97.8722 12.4418 98.6848 12.9215C99.4226 13.3283 100.042 13.9266 100.48 14.6559H100.738L100.48 12.3638V5.3255H104.677V28.7649H100.738V26.8272ZM96.5346 25.3231C97.0785 25.3251 97.6176 25.2194 98.1221 25.0119C98.6212 24.8072 99.0743 24.5012 99.4538 24.1123C99.8522 23.6981 100.168 23.2094 100.385 22.673C100.856 21.4307 100.856 20.0542 100.385 18.812C100.168 18.2758 99.8519 17.7871 99.4538 17.3726C99.0739 16.9843 98.6209 16.6783 98.1221 16.4731C97.6176 16.2655 97.0785 16.1598 96.5346 16.1618C95.9891 16.1601 95.449 16.2715 94.947 16.4893C94.4496 16.7044 93.9979 17.016 93.617 17.4068C93.2173 17.8199 92.9009 18.3089 92.6857 18.8462C92.2154 20.0661 92.2154 21.4224 92.6857 22.6424C92.9005 23.1799 93.2169 23.6689 93.617 24.0817C93.9974 24.4731 94.4493 24.7848 94.947 24.9993C95.4492 25.2158 95.9893 25.326 96.5346 25.3231Z" fill="#005695"/>
    <path d="M116.749 27.0574H116.495C115.991 27.678 115.389 28.2088 114.714 28.6281C114.019 29.0635 113.126 29.2818 112.036 29.283C111.254 29.2883 110.477 29.1493 109.743 28.8728C109.054 28.618 108.418 28.2356 107.866 27.7447C107.331 27.2649 106.904 26.6734 106.614 26.0103C106.309 25.3099 106.157 24.5508 106.166 23.7848C106.154 23.0096 106.319 22.2422 106.647 21.543C106.968 20.8769 107.428 20.2905 107.995 19.8248C108.599 19.3298 109.291 18.9573 110.032 18.7273C110.859 18.47 111.719 18.3432 112.583 18.3513C113.434 18.3335 114.285 18.4163 115.118 18.5978C115.674 18.7281 116.221 18.8976 116.754 19.1052V18.614C116.76 18.2074 116.673 17.805 116.501 17.4385C116.328 17.0719 116.074 16.7513 115.76 16.5018C115.06 15.9335 114.184 15.6382 113.29 15.6688C111.835 15.6688 110.605 16.2901 109.6 17.5327L106.552 15.4061C108.221 13.2687 110.499 12.1994 113.387 12.1982C115.825 12.1982 117.686 12.7823 118.97 13.9506C120.254 15.1188 120.896 16.8478 120.894 19.1376V28.7648H116.749V27.0574ZM116.749 22.2465C116.26 22.0079 115.749 21.8158 115.225 21.6726C114.664 21.5271 114.086 21.4557 113.507 21.4603C112.502 21.4603 111.727 21.684 111.182 22.1313C110.928 22.3217 110.721 22.5707 110.579 22.8581C110.437 23.1454 110.363 23.4629 110.364 23.7848C110.356 24.0925 110.424 24.3973 110.561 24.6715C110.698 24.9458 110.9 25.1808 111.149 25.3554C111.675 25.7492 112.314 25.9559 112.967 25.9438C113.992 25.9518 114.978 25.5463 115.71 24.8157C116.377 24.1332 116.752 23.2098 116.754 22.2465H116.749Z" fill="#005695"/>
  </g>
  <defs>
    <clipPath id="clip0_7971_2802">
      <rect width="121" height="49" fill="white"/>
    </clipPath>
  </defs>
</svg>